<svg width="121" height="145" viewBox="0 0 121 145" fill="none" xmlns="http://www.w3.org/2000/svg">
<path d="M0 0.0975979C17.0205 -0.101652 29.4638 0.0688373 46.4998 0.0510873L64.1298 0.0338372C67.6103 0.0320872 72.1061 -0.0846656 75.5088 0.271584C80.4753 0.811334 85.3276 2.12034 89.8913 4.15159C102.149 9.46409 111.791 19.4336 116.69 31.8623C121.92 45.4943 121.555 60.6398 115.674 74.0038C111.784 82.6983 102.545 93.9183 93.4516 97.3638C95.5501 100.894 97.5438 104.542 99.5948 108.107C106.529 120.157 113.677 132.011 120.164 144.311C111.941 144.411 103.717 144.466 95.4923 144.475L92.2143 138.938C90.8946 136.835 89.3853 133.933 88.1021 131.718C85.5391 127.396 83.0058 123.056 80.5028 118.699C78.1883 114.646 73.9773 107.681 72.1343 103.631C61.2783 103.81 49.4523 103.676 38.6101 103.524C38.8276 96.8191 38.6068 90.0863 38.8438 83.3638L57.6241 83.3886C69.9468 83.3893 79.1446 84.5108 88.9986 75.5066C106.543 59.4753 100.101 27.0233 76.0971 21.4548C72.2756 20.5683 67.8183 20.8048 63.8931 20.8061L49.9311 20.8196C31.9146 20.8421 17.9305 21.3368 0 21C0.0748 14.1137 0.0196 6.9841 0 0.0975979Z" fill="#E4A16A"/>
<path d="M62.1193 41.6823C66.4893 41.6593 72.4463 41.1468 75.7793 44.4081C80.828 49.4956 79.2448 60.3381 71.2583 61.4146C69.4205 61.6928 67.5493 61.7686 65.6883 61.7528C50.6818 61.6248 35.5073 62.0831 20.5175 61.6181C20.6935 86.1783 20.7268 119.939 20.6175 144.5C19.6583 144.5 17.6583 144.5 16.6583 144.5C11.1583 144.5 5.65829 144.5 0.126683 144.5C0.126686 136.5 0.201563 117.633 0.133238 109.424C-0.0540373 86.9156 0.355563 64.2991 0.0166626 41.7911C20.6573 41.4156 41.4648 41.9728 62.1193 41.6823Z" fill="url(#paint0_linear_3_84)"/>
<defs>
<linearGradient id="paint0_linear_3_84" x1="8.18588e-09" y1="91.7254" x2="78.6746" y2="91.7254" gradientUnits="userSpaceOnUse">
<stop stop-color="#CC8957"/>
<stop offset="1" stop-color="#E4A16A"/>
</linearGradient>
</defs>
</svg>
