<svg width="377" height="433" viewBox="0 0 377 433" fill="none" xmlns="http://www.w3.org/2000/svg">
<path d="M106.645 0.132436C129.741 -0.137937 146.626 0.0934092 169.743 0.0693232L193.666 0.0459157C198.389 0.043541 204.489 -0.114887 209.107 0.368528C215.846 1.10095 222.43 2.87721 228.623 5.63353C245.257 12.8424 258.34 26.3705 264.988 43.2358C272.085 61.7338 271.589 82.2856 263.608 100.42C258.331 112.218 245.794 127.443 233.454 132.118C236.302 136.909 239.007 141.859 241.79 146.696C251.199 163.048 260.899 179.133 269.702 195.824C258.543 195.96 247.383 196.034 236.223 196.046L231.775 188.533C229.984 185.679 227.936 181.741 226.195 178.736C222.717 172.871 219.28 166.981 215.883 161.069C212.743 155.569 207.029 146.119 204.528 140.622C189.797 140.865 173.749 140.684 159.037 140.478C159.332 131.379 159.032 122.243 159.354 113.121L184.838 113.155C201.559 113.156 214.04 114.678 227.412 102.459C251.219 80.7055 242.477 36.6695 209.905 29.1133C204.719 27.9103 198.671 28.2313 193.345 28.233L174.399 28.2513C149.951 28.2818 130.975 28.953 106.645 28.4961C106.746 19.1517 106.671 9.47712 106.645 0.132436Z" fill="#E4A16A"/>
<path d="M190.939 56.5611C196.868 56.5299 204.952 55.8345 209.475 60.2598C216.325 67.1634 214.177 81.8762 203.34 83.3369C200.846 83.7145 198.307 83.8173 195.782 83.7959C175.418 83.6222 154.827 84.2441 134.487 83.6131C134.726 116.94 134.771 162.753 134.622 196.08C133.321 196.08 130.607 196.08 129.25 196.08C121.787 196.08 114.323 196.08 106.817 196.08C106.817 185.225 106.919 159.622 106.826 148.483C106.572 117.941 107.128 87.2511 106.668 56.7087C134.676 56.1992 162.911 56.9553 190.939 56.5611Z" fill="url(#paint0_linear_74_17)"/>
<path d="M57.0375 237.335V250.305H15.898V278.893H47.9729V291.863H15.898V334.257H0V237.335H57.0375Z" fill="#272827"/>
<path d="M115.978 335.233C106.96 335.233 98.6394 333.142 91.0158 328.958C83.4851 324.681 77.4885 318.778 73.0259 311.247C68.6563 303.623 66.4715 295.07 66.4715 285.587C66.4715 276.104 68.6563 267.597 73.0259 260.067C77.4885 252.536 83.4851 246.679 91.0158 242.495C98.6394 238.219 106.96 236.08 115.978 236.08C125.09 236.08 133.41 238.219 140.941 242.495C148.565 246.679 154.561 252.536 158.931 260.067C163.3 267.597 165.485 276.104 165.485 285.587C165.485 295.07 163.3 303.623 158.931 311.247C154.561 318.778 148.565 324.681 140.941 328.958C133.41 333.142 125.09 335.233 115.978 335.233ZM115.978 321.427C122.393 321.427 128.111 319.986 133.132 317.104C138.152 314.129 142.057 309.945 144.846 304.553C147.728 299.068 149.169 292.746 149.169 285.587C149.169 278.428 147.728 272.153 144.846 266.761C142.057 261.368 138.152 257.231 133.132 254.349C128.111 251.467 122.393 250.026 115.978 250.026C109.563 250.026 103.846 251.467 98.8253 254.349C93.8049 257.231 89.8536 261.368 86.9715 266.761C84.1824 272.153 82.7879 278.428 82.7879 285.587C82.7879 292.746 84.1824 299.068 86.9715 304.553C89.8536 309.945 93.8049 314.129 98.8253 317.104C103.846 319.986 109.563 321.427 115.978 321.427Z" fill="#272827"/>
<path d="M231.473 334.257L209.16 295.488H197.027V334.257H181.129V237.335H214.599C222.037 237.335 228.312 238.637 233.425 241.24C238.632 243.843 242.49 247.33 245 251.699C247.603 256.069 248.905 260.95 248.905 266.342C248.905 272.664 247.046 278.428 243.327 283.635C239.701 288.748 234.076 292.235 226.453 294.094L250.439 334.257H231.473ZM197.027 282.798H214.599C220.549 282.798 225.012 281.31 227.987 278.335C231.055 275.36 232.589 271.363 232.589 266.342C232.589 261.322 231.101 257.417 228.126 254.628C225.151 251.746 220.642 250.305 214.599 250.305H197.027V282.798Z" fill="#272827"/>
<path d="M371.325 237.335V334.257H355.427V267.876L325.862 334.257H314.845L285.141 267.876V334.257H269.243V237.335H286.396L320.423 313.339L354.311 237.335H371.325Z" fill="#272827"/>
<path d="M22.1819 432.08C17.948 432.08 14.1436 431.344 10.7688 429.871C7.45532 428.337 4.84749 426.251 2.94531 423.612C1.04313 420.913 0.0613606 417.814 0 414.316H8.92798C9.23478 417.323 10.462 419.869 12.6096 421.956C14.8186 423.981 18.0094 424.993 22.1819 424.993C26.1703 424.993 29.2997 424.011 31.5701 422.048C33.9018 420.023 35.0676 417.446 35.0676 414.316C35.0676 411.862 34.3927 409.868 33.0427 408.334C31.6928 406.8 30.0054 405.634 27.9805 404.836C25.9556 404.038 23.225 403.179 19.7888 402.259C15.5549 401.154 12.1494 400.05 9.57226 398.945C7.05648 397.841 4.87817 396.123 3.03735 393.791C1.25789 391.398 0.368164 388.207 0.368164 384.219C0.368164 380.721 1.25789 377.623 3.03735 374.923C4.81681 372.223 7.30192 370.137 10.4927 368.664C13.7448 367.191 17.4571 366.455 21.6296 366.455C27.643 366.455 32.5518 367.958 36.3562 370.965C40.2219 373.972 42.4002 377.96 42.8911 382.93H33.687C33.3802 380.476 32.0916 378.328 29.8213 376.487C27.5509 374.585 24.5443 373.634 20.8013 373.634C17.3037 373.634 14.4504 374.555 12.2415 376.395C10.0325 378.175 8.92798 380.691 8.92798 383.943C8.92798 386.274 9.57226 388.177 10.8608 389.649C12.2108 391.122 13.8368 392.257 15.739 393.055C17.7026 393.791 20.4331 394.65 23.9307 395.632C28.1645 396.798 31.5701 397.964 34.1472 399.13C36.7244 400.234 38.9333 401.983 40.7742 404.376C42.615 406.708 43.5354 409.898 43.5354 413.948C43.5354 417.078 42.707 420.023 41.0503 422.784C39.3935 425.545 36.9391 427.785 33.687 429.503C30.4349 431.221 26.5998 432.08 22.1819 432.08Z" fill="#272827"/>
<path d="M107.312 367.283V374.094H89.8241V431.436H81.4484V374.094H63.8685V367.283H107.312Z" fill="#272827"/>
<path d="M137.779 367.283V407.873C137.779 413.58 139.16 417.814 141.921 420.575C144.743 423.336 148.64 424.717 153.61 424.717C158.519 424.717 162.354 423.336 165.115 420.575C167.938 417.814 169.349 413.58 169.349 407.873V367.283H177.725V407.781C177.725 413.12 176.651 417.63 174.503 421.311C172.356 424.932 169.441 427.632 165.759 429.411C162.139 431.19 158.059 432.08 153.518 432.08C148.977 432.08 144.866 431.19 141.184 429.411C137.564 427.632 134.68 424.932 132.533 421.311C130.446 417.63 129.403 413.12 129.403 407.781V367.283H137.779Z" fill="#272827"/>
<path d="M223.635 367.283C230.63 367.283 236.674 368.603 241.767 371.241C246.922 373.818 250.849 377.531 253.548 382.378C256.31 387.226 257.69 392.932 257.69 399.498C257.69 406.063 256.31 411.77 253.548 416.617C250.849 421.403 246.922 425.085 241.767 427.662C236.674 430.178 230.63 431.436 223.635 431.436H203.662V367.283H223.635ZM223.635 424.533C231.919 424.533 238.239 422.355 242.596 417.998C246.952 413.58 249.131 407.413 249.131 399.498C249.131 391.521 246.922 385.293 242.504 380.813C238.147 376.334 231.857 374.094 223.635 374.094H212.038V424.533H223.635Z" fill="#272827"/>
<path d="M289.079 367.283V431.436H280.703V367.283H289.079Z" fill="#272827"/>
<path d="M344.404 432.08C338.452 432.08 333.022 430.7 328.113 427.938C323.204 425.116 319.308 421.219 316.424 416.249C313.601 411.218 312.19 405.572 312.19 399.314C312.19 393.055 313.601 387.44 316.424 382.47C319.308 377.439 323.204 373.542 328.113 370.781C333.022 367.958 338.452 366.547 344.404 366.547C350.418 366.547 355.879 367.958 360.788 370.781C365.697 373.542 369.562 377.408 372.385 382.378C375.208 387.348 376.619 392.993 376.619 399.314C376.619 405.634 375.208 411.279 372.385 416.249C369.562 421.219 365.697 425.116 360.788 427.938C355.879 430.7 350.418 432.08 344.404 432.08ZM344.404 424.809C348.884 424.809 352.903 423.766 356.462 421.68C360.082 419.593 362.905 416.617 364.93 412.752C367.016 408.886 368.059 404.407 368.059 399.314C368.059 394.159 367.016 389.68 364.93 385.876C362.905 382.01 360.113 379.034 356.554 376.948C352.995 374.861 348.945 373.818 344.404 373.818C339.864 373.818 335.814 374.861 332.255 376.948C328.696 379.034 325.874 382.01 323.787 385.876C321.762 389.68 320.75 394.159 320.75 399.314C320.75 404.407 321.762 408.886 323.787 412.752C325.874 416.617 328.696 419.593 332.255 421.68C335.875 423.766 339.925 424.809 344.404 424.809Z" fill="#272827"/>
<defs>
<linearGradient id="paint0_linear_74_17" x1="106.645" y1="124.467" x2="213.403" y2="124.467" gradientUnits="userSpaceOnUse">
<stop stop-color="#CC8957"/>
<stop offset="1" stop-color="#E4A16A"/>
</linearGradient>
</defs>
</svg>
