<svg width="580" height="200" viewBox="0 0 580 200" fill="none" xmlns="http://www.w3.org/2000/svg">
<path d="M260.368 1.25511V14.2245H219.228V42.813H251.303V55.7824H219.228V98.1771H203.33V1.25511H260.368Z" fill="#F9F9F9"/>
<path d="M319.308 99.1533C310.29 99.1533 301.969 97.0614 294.346 92.8777C286.815 88.6011 280.819 82.6975 276.356 75.1668C271.986 67.5432 269.802 58.9899 269.802 49.5069C269.802 40.0239 271.986 31.5171 276.356 23.9865C280.819 16.4558 286.815 10.5987 294.346 6.41498C301.969 2.13833 310.29 0 319.308 0C328.42 0 336.74 2.13833 344.271 6.41498C351.895 10.5987 357.891 16.4558 362.261 23.9865C366.631 31.5171 368.815 40.0239 368.815 49.5069C368.815 58.9899 366.631 67.5432 362.261 75.1668C357.891 82.6975 351.895 88.6011 344.271 92.8777C336.74 97.0614 328.42 99.1533 319.308 99.1533ZM319.308 85.3471C325.723 85.3471 331.441 83.9061 336.462 81.024C341.482 78.0489 345.387 73.8652 348.176 68.4729C351.058 62.9877 352.499 56.6657 352.499 49.5069C352.499 42.3482 351.058 36.0726 348.176 30.6803C345.387 25.288 341.482 21.1508 336.462 18.2688C331.441 15.3867 325.723 13.9456 319.308 13.9456C312.894 13.9456 307.176 15.3867 302.155 18.2688C297.135 21.1508 293.184 25.288 290.302 30.6803C287.513 36.0726 286.118 42.3482 286.118 49.5069C286.118 56.6657 287.513 62.9877 290.302 68.4729C293.184 73.8652 297.135 78.0489 302.155 81.024C307.176 83.9061 312.894 85.3471 319.308 85.3471Z" fill="#F9F9F9"/>
<path d="M434.803 98.1771L412.49 59.4083H400.357V98.1771H384.46V1.25511H417.929C425.367 1.25511 431.642 2.55669 436.756 5.15987C441.962 7.76305 445.82 11.2495 448.33 15.6191C450.934 19.9887 452.235 24.8697 452.235 30.262C452.235 36.584 450.376 42.3482 446.657 47.5545C443.031 52.6679 437.406 56.1543 429.783 58.0137L453.769 98.1771H434.803ZM400.357 46.7178H417.929C423.879 46.7178 428.342 45.2303 431.317 42.2552C434.385 39.2801 435.919 35.2824 435.919 30.262C435.919 25.2416 434.431 21.3368 431.456 18.5477C428.481 15.6656 423.972 14.2245 417.929 14.2245H400.357V46.7178Z" fill="#F9F9F9"/>
<path d="M574.655 1.25511V98.1771H558.757V31.796L529.192 98.1771H518.175L488.471 31.796V98.1771H472.573V1.25511H489.726L523.753 77.2587L557.641 1.25511H574.655Z" fill="#F9F9F9"/>
<path d="M225.512 196C221.278 196 217.474 195.264 214.099 193.791C210.785 192.257 208.178 190.171 206.275 187.532C204.373 184.832 203.391 181.734 203.33 178.236H212.258C212.565 181.243 213.792 183.789 215.94 185.875C218.149 187.9 221.339 188.913 225.512 188.913C229.5 188.913 232.63 187.931 234.9 185.968C237.232 183.943 238.398 181.365 238.398 178.236C238.398 175.782 237.723 173.787 236.373 172.253C235.023 170.719 233.335 169.554 231.311 168.756C229.286 167.958 226.555 167.099 223.119 166.179C218.885 165.074 215.479 163.97 212.902 162.865C210.387 161.761 208.208 160.043 206.367 157.711C204.588 155.318 203.698 152.127 203.698 148.139C203.698 144.641 204.588 141.542 206.367 138.843C208.147 136.143 210.632 134.056 213.823 132.584C217.075 131.111 220.787 130.375 224.96 130.375C230.973 130.375 235.882 131.878 239.686 134.885C243.552 137.891 245.73 141.88 246.221 146.85H237.017C236.71 144.396 235.422 142.248 233.151 140.407C230.881 138.505 227.874 137.554 224.131 137.554C220.634 137.554 217.781 138.474 215.572 140.315C213.363 142.095 212.258 144.61 212.258 147.863C212.258 150.194 212.902 152.096 214.191 153.569C215.541 155.042 217.167 156.177 219.069 156.975C221.033 157.711 223.763 158.57 227.261 159.552C231.495 160.718 234.9 161.883 237.477 163.049C240.054 164.154 242.263 165.903 244.104 168.296C245.945 170.627 246.865 173.818 246.865 177.868C246.865 180.997 246.037 183.943 244.38 186.704C242.724 189.465 240.269 191.705 237.017 193.423C233.765 195.141 229.93 196 225.512 196Z" fill="#F9F9F9"/>
<path d="M310.642 131.203V138.014H293.154V195.356H284.778V138.014H267.199V131.203H310.642Z" fill="#F9F9F9"/>
<path d="M341.109 131.203V171.793C341.109 177.5 342.49 181.734 345.251 184.495C348.073 187.256 351.97 188.637 356.94 188.637C361.849 188.637 365.684 187.256 368.445 184.495C371.268 181.734 372.679 177.5 372.679 171.793V131.203H381.055V171.701C381.055 177.04 379.981 181.55 377.833 185.231C375.686 188.851 372.771 191.551 369.089 193.331C365.469 195.11 361.389 196 356.848 196C352.307 196 348.196 195.11 344.514 193.331C340.894 191.551 338.01 188.851 335.863 185.231C333.776 181.55 332.733 177.04 332.733 171.701V131.203H341.109Z" fill="#F9F9F9"/>
<path d="M426.965 131.203C433.96 131.203 440.004 132.522 445.097 135.161C450.252 137.738 454.179 141.45 456.879 146.298C459.64 151.145 461.02 156.852 461.02 163.417C461.02 169.983 459.64 175.69 456.879 180.537C454.179 185.323 450.252 189.005 445.097 191.582C440.004 194.098 433.96 195.356 426.965 195.356H406.992V131.203H426.965ZM426.965 188.453C435.249 188.453 441.569 186.274 445.926 181.918C450.282 177.5 452.461 171.333 452.461 163.417C452.461 155.441 450.252 149.212 445.834 144.733C441.477 140.254 435.188 138.014 426.965 138.014H415.368V188.453H426.965Z" fill="#F9F9F9"/>
<path d="M492.409 131.203V195.356H484.034V131.203H492.409Z" fill="#F9F9F9"/>
<path d="M547.735 196C541.783 196 536.352 194.619 531.443 191.858C526.534 189.036 522.638 185.139 519.754 180.169C516.931 175.137 515.52 169.492 515.52 163.233C515.52 156.975 516.931 151.36 519.754 146.39C522.638 141.358 526.534 137.462 531.443 134.701C536.352 131.878 541.783 130.467 547.735 130.467C553.748 130.467 559.209 131.878 564.118 134.701C569.027 137.462 572.892 141.328 575.715 146.298C578.538 151.268 579.949 156.913 579.949 163.233C579.949 169.554 578.538 175.199 575.715 180.169C572.892 185.139 569.027 189.036 564.118 191.858C559.209 194.619 553.748 196 547.735 196ZM547.735 188.729C552.214 188.729 556.233 187.686 559.792 185.599C563.412 183.513 566.235 180.537 568.26 176.671C570.346 172.806 571.389 168.326 571.389 163.233C571.389 158.079 570.346 153.6 568.26 149.795C566.235 145.93 563.443 142.954 559.884 140.867C556.325 138.781 552.275 137.738 547.735 137.738C543.194 137.738 539.144 138.781 535.585 140.867C532.026 142.954 529.204 145.93 527.117 149.795C525.092 153.6 524.08 158.079 524.08 163.233C524.08 168.326 525.092 172.806 527.117 176.671C529.204 180.537 532.026 183.513 535.585 185.599C539.205 187.686 543.255 188.729 547.735 188.729Z" fill="#F9F9F9"/>
<path d="M0 3.13244C23.096 2.86206 39.9811 3.09341 63.0982 3.06932L87.0213 3.04592C91.7442 3.04354 97.8448 2.88511 102.462 3.36853C109.201 4.10095 115.786 5.87721 121.979 8.63353C138.612 15.8424 151.695 29.3705 158.344 46.2358C165.441 64.7338 164.945 85.2856 156.964 103.42C151.686 115.218 139.15 130.443 126.81 135.118C129.657 139.909 132.363 144.859 135.146 149.696C144.555 166.048 154.255 182.133 163.058 198.824C151.898 198.96 140.739 199.034 129.579 199.046L125.131 191.533C123.34 188.679 121.292 184.741 119.551 181.736C116.073 175.871 112.635 169.981 109.239 164.069C106.098 158.569 100.384 149.119 97.8831 143.622C83.152 143.865 67.1046 143.684 52.3922 143.478C52.6873 134.379 52.3878 125.243 52.7094 116.121L78.1933 116.155C94.9148 116.156 107.396 117.678 120.767 105.459C144.574 83.7055 135.832 39.6695 103.26 32.1133C98.0748 30.9103 92.0265 31.2313 86.7001 31.233L67.7543 31.2513C43.3067 31.2818 24.3309 31.953 0 31.4961C0.1015 22.1517 0.0265963 12.4771 0 3.13244Z" fill="#F9F9F9"/>
<path d="M84.294 59.5611C90.2239 59.5299 98.3073 58.8345 102.83 63.2598C109.681 70.1634 107.533 84.8762 96.6952 86.3369C94.2015 86.7145 91.6623 86.8173 89.137 86.7959C68.7738 86.6222 48.1827 87.2441 27.8422 86.6131C28.0811 119.94 28.1262 165.753 27.9779 199.08C26.6763 199.08 23.9624 199.08 22.6054 199.08C15.1421 199.08 7.67888 199.08 0.172731 199.08C0.172735 188.225 0.274339 162.622 0.181625 151.483C-0.0724991 120.941 0.48331 90.2511 0.0234375 59.7087C28.0319 59.1992 56.2667 59.9553 84.294 59.5611Z" fill="#F9F9F9"/>
</svg>
